<?xml version="1.0" encoding="iso-8859-1"?>
<!-- Generator: Adobe Illustrator 19.0.0, SVG Export Plug-In . SVG Version: 6.00 Build 0)  -->
<svg version="1.1" id="Layer_1" xmlns="http://www.w3.org/2000/svg" xmlns:xlink="http://www.w3.org/1999/xlink" x="0px" y="0px"
	 viewBox="0 0 248.309 248.309" xml:space="preserve">
<g>
	<g>
		<g>
			<path d="M181.758,33.256L124.154,0L66.552,33.256v66.512l57.602,33.256l57.602-33.256L181.758,33.256z M124.154,123.519
				L74.787,95.015V38.008l49.367-28.504l49.367,28.504l0.001,57.007L124.154,123.519z"/>
			<path d="M0.675,148.54v66.512l57.602,33.256l57.602-33.256V148.54l-57.602-33.256L0.675,148.54z M107.646,210.3l-49.368,28.504
				L8.91,210.3v-57.007l49.367-28.504l49.367,28.504L107.646,210.3z"/>
			<path d="M190.032,115.285l-57.602,33.256v66.512l57.602,33.256l57.602-33.256V148.54L190.032,115.285z M190.032,238.804
				L140.665,210.3v-57.007l49.367-28.504l49.367,28.504l0.001,57.007L190.032,238.804z"/>
			<polygon points="45.925,157.093 37.691,157.093 37.691,206.501 45.925,206.501 45.925,185.914 70.63,185.914 70.63,206.501 
				78.865,206.501 78.865,157.093 70.63,157.093 70.63,177.679 45.925,177.679 			"/>
			<polygon points="202.383,177.679 177.68,177.679 177.68,157.093 169.446,157.093 169.446,206.501 177.68,206.501 177.68,185.914 
				202.383,185.914 202.383,206.501 210.618,206.501 210.618,157.093 202.383,157.093 			"/>
			<path d="M111.803,41.808c-0.001,0-8.235,0-8.235,0v49.408h8.235h24.704h8.235V41.808h-8.235H111.803z M136.506,82.981h-24.704
				V50.043h24.704V82.981z"/>
		</g>
	</g>
</g>
<g>
</g>
<g>
</g>
<g>
</g>
<g>
</g>
<g>
</g>
<g>
</g>
<g>
</g>
<g>
</g>
<g>
</g>
<g>
</g>
<g>
</g>
<g>
</g>
<g>
</g>
<g>
</g>
<g>
</g>
</svg>
